<svg width="18" height="18" xmlns="http://www.w3.org/2000/svg" fill="none">
  <path d="m2.5008,16.97931c0.06095,0.6704 0.60948,1.158 1.27991,1.158l10.52368,0c0.6704,0 1.219,-0.5079 1.2799,-1.158l1.1784,-12.35216l-15.44022,0l1.17833,12.35216z" fill="white" id="svg_1"/>
  <path id="svg_2" fill="white" d="m16.7201,1.93002l-5.14,0l0,-0.65011c0,-0.71106 -0.5688,-1.27991 -1.2799,-1.27991l-2.58011,0c-0.71106,0 -1.27991,0.56885 -1.27991,1.27991l0,0.65011l-5.16027,0c-0.71106,0 -1.27991,0.56885 -1.27991,1.27991c0,0.71106 0.56885,1.27991 1.27991,1.27991l15.44019,0c0.7111,0 1.2799,-0.56885 1.2799,-1.27991c0,-0.71106 -0.5688,-1.27991 -1.2799,-1.27991z"/>
</svg>